<svg xmlns="http://www.w3.org/2000/svg" viewBox="0 0 32 32" width="256" height="256" shape-rendering="crispEdges" xmlns:c2pa="http://c2pa.org/manifest"><metadata><c2pa:manifest>AAAWgmp1bWIAAAAeanVtZGMycGEAEQAQgAAAqgA4m3EDYzJwYQAAABZcanVtYgAAAEdqdW1kYzJtYQARABCAAACqADibcQN1cm46YzJwYTo2MWZiMjBhMC1lNGRiLTRjMmQtODA5Ni0zNTQ2MDUwZjRhNGUAAAADl2p1bWIAAAApanVtZGMyYXMAEQAQgAAAqgA4m3EDYzJwYS5hc3NlcnRpb25zAAAAALxqdW1iAAAARGp1bWRjYm9yABEAEIAAAKoAOJtxE2MycGEuaW5ncmVkaWVudC52MwAAAAAYYzJzaPTpNzW9Kh7d1/2gAI4NOsQAAABwY2JvcqNpZGM6Zm9ybWF0bWltYWdlL3N2Zyt4bWxqaW5zdGFuY2VJRHgseG1wOmlpZDowYjk2OWRkMC00MWY1LTQ0ODItYmYzOC0zZDViZDg5ZDkwMDVscmVsYXRpb25zaGlwaHBhcmVudE9mAAAB4mp1bWIAAABBanVtZGNib3IAEQAQgAAAqgA4m3ETYzJwYS5hY3Rpb25zLnYyAAAAABhjMnNoK+Cy6iCfzSKp66hWVHXqmgAAAZljYm9yomdhY3Rpb25zgqJmYWN0aW9ua2MycGEub3BlbmVkanBhcmFtZXRlcnOha2luZ3JlZGllbnRzgaJjdXJseC1zZWxmI2p1bWJmPWMycGEuYXNzZXJ0aW9ucy9jMnBhLmluZ3JlZGllbnQudjNkaGFzaFgg/FYA9o11Tl0DKJwYg+vj0esu4TNyFPv9lAwh0aewZtmkZmFjdGlvbngdY29tLmFudGhyb3BpYy5jbGF1ZGUucHJvdmlkZWRqcGFyYW1ldGVyc6F4H2NvbS5hbnRocm9waWMub3JpZ2luLWNvbmZpZGVuY2VndW5rbm93bmtkZXNjcmlwdGlvbnhmQ2xhdWRlIHByb3ZpZGVkIHRoaXMgZmlsZSBhdCB0aGUgcmVxdWVzdCBvZiBhIHVzZXIgYW5kIG1heSBoYXZlIGNyZWF0ZWQgb3IgbW9kaWZpZWQgdGhlIGZpbGUgY29udGVudHMubXNvZnR3YXJlQWdlbnShZG5hbWVmQ2xhdWRlcmFsbEFjdGlvbnNJbmNsdWRlZPUAAADIanVtYgAAAEBqdW1kY2JvcgARABCAAACqADibcRNjMnBhLmhhc2guZGF0YQAAAAAYYzJzaM/HemizgtAGh/dm4lAuF90AAACAY2JvcqVjYWxnZnNoYTI1NmNwYWRNAAAAAAAAAAAAAAAAAGRoYXNoWCAGw3N3koZxpSNCWep/qxMUZhwHiB8r4ouuX+c+fl8qKGRuYW1lbmp1bWJmIG1hbmlmZXN0amV4Y2x1c2lvbnOBomVzdGFydBixZmxlbmd0aBkeBAAAAj5qdW1iAAAAJ2p1bWRjMmNsABEAEIAAAKoAOJtxA2MycGEuY2xhaW0udjIAAAACD2Nib3KlY2FsZ2ZzaGEyNTZpc2lnbmF0dXJleE1zZWxmI2p1bWJmPS9jMnBhL3VybjpjMnBhOjYxZmIyMGEwLWU0ZGItNGMyZC04MDk2LTM1NDYwNTBmNGE0ZS9jMnBhLnNpZ25hdHVyZWppbnN0YW5jZUlEeCx4bXA6aWlkOmQyODJmMDU3LWFmNDgtNDNhMC1hNjQ0LWU1ZDBkY2M3MWMwM3JjcmVhdGVkX2Fzc2VydGlvbnODomN1cmx4LXNlbGYjanVtYmY9YzJwYS5hc3NlcnRpb25zL2MycGEuaW5ncmVkaWVudC52M2RoYXNoWCD8VgD2jXVOXQMonBiD6+PR6y7hM3IU+/2UDCHRp7Bm2aJjdXJseCpzZWxmI2p1bWJmPWMycGEuYXNzZXJ0aW9ucy9jMnBhLmFjdGlvbnMudjJkaGFzaFgg+JSRi5gADSFIVatBROqVFec2L5K3Vch+bZc95uM5oeeiY3VybHgpc2VsZiNqdW1iZj1jMnBhLmFzc2VydGlvbnMvYzJwYS5oYXNoLmRhdGFkaGFzaFggkjx1P72xp+DcwhsqjXrLpFTdf2cd5GTrbcduNwiiUG10Y2xhaW1fZ2VuZXJhdG9yX2luZm+jZG5hbWVvQW50aHJvcGljIEZpbGVzZ3ZlcnNpb25lMS4wLjBrc3BlY1ZlcnNpb25lMi40LjAAABA4anVtYgAAAChqdW1kYzJjcwARABCAAACqADibcQNjMnBhLnNpZ25hdHVyZQAAABAIY2JvctKEWQISogEmGCFZAgowggIGMIIBjaADAgECAhRA5aAK7sI50L64g/oGQgU9Z1UTADAKBggqhkjOPQQDAzBJMRcwFQYDVQQKEw5BbnRocm9waWMsIFBCQzEuMCwGA1UEAxMlQW50aHJvcGljIENvbnRlbnQgQ3JlZGVudGlhbHMgUm9vdCBDQTAeFw0yNjA4MDcxODQzNTZaFw0yODA4MDYxOTQzNTZaMEQxFzAVBgNVBAoTDkFudGhyb3BpYywgUEJDMSkwJwYDVQQDEyBBbnRocm9waWMgQ2xhdWRlIENvbnRlbnQgU2lnbmluZzBZMBMGByqGSM49AgEGCCqGSM49AwEHA0IABJh6CmvLUBgFFNU0vUKlOVtE6djd17L5SuwX0LemFisBM3dkd/3cyjxFA3Qo5S46fX0/ihY0VZ7mfb9KF703t5OjWDBWMA4GA1UdDwEB/wQEAwIHgDAVBgNVHSUEDjAMBgorBgEEAYPoXgIBMAwGA1UdEwEB/wQCMAAwHwYDVR0jBBgwFoAUzlHiBIFOZFsj+OPEz5o+nMHXXMIwCgYIKoZIzj0EAwMDZwAwZAIwMXMdFJ4BetLLVY7ORuE9noqbbAZOZn/aArXyTwFAZfKrPzxF2vPoJNf1+UCdg1XGAjBwX1zd9WGqYkqmL5SFqw1QySjr1zJfpJM9+1rdDwSPLMOPOjKuiXjoU/pUUeG9RwmhY3BhZFkNngAAAAAAAAAAAAAAAAAAAAAAAAAAAAAAAAAAAAAAAAAAAAAAAAAAAAAAAAAAAAAAAAAAAAAAAAAAAAAAAAAAAAAAAAAAAAAAAAAAAAAAAAAAAAAAAAAAAAAAAAAAAAAAAAAAAAAAAAAAAAAAAAAAAAAAAAAAAAAAAAAAAAAAAAAAAAAAAAAAAAAAAAAAAAAAAAAAAAAAAAAAAAAAAAAAAAAAAAAAAAAAAAAAAAAAAAAAAAAAAAAAAAAAAAAAAAAAAAAAAAAAAAAAAAAAAAAAAAAAAAAAAAAAAAAAAAAAAAAAAAAAAAAAAAAAAAAAAAAAAAAAAAAAAAAAAAAAAAAAAAAAAAAAAAAAAAAAAAAAAAAAAAAAAAAAAAAAAAAAAAAAAAAAAAAAAAAAAAAAAAAAAAAAAAAAAAAAAAAAAAAAAAAAAAAAAAAAAAAAAAAAAAAAAAAAAAAAAAAAAAAAAAAAAAAAAAAAAAAAAAAAAAAAAAAAAAAAAAAAAAAAAAAAAAAAAAAAAAAAAAAAAAAAAAAAAAAAAAAAAAAAAAAAAAAAAAAAAAAAAAAAAAAAAAAAAAAAAAAAAAAAAAAAAAAAAAAAAAAAAAAAAAAAAAAAAAAAAAAAAAAAAAAAAAAAAAAAAAAAAAAAAAAAAAAAAAAAAAAAAAAAAAAAAAAAAAAAAAAAAAAAAAAAAAAAAAAAAAAAAAAAAAAAAAAAAAAAAAAAAAAAAAAAAAAAAAAAAAAAAAAAAAAAAAAAAAAAAAAAAAAAAAAAAAAAAAAAAAAAAAAAAAAAAAAAAAAAAAAAAAAAAAAAAAAAAAAAAAAAAAAAAAAAAAAAAAAAAAAAAAAAAAAAAAAAAAAAAAAAAAAAAAAAAAAAAAAAAAAAAAAAAAAAAAAAAAAAAAAAAAAAAAAAAAAAAAAAAAAAAAAAAAAAAAAAAAAAAAAAAAAAAAAAAAAAAAAAAAAAAAAAAAAAAAAAAAAAAAAAAAAAAAAAAAAAAAAAAAAAAAAAAAAAAAAAAAAAAAAAAAAAAAAAAAAAAAAAAAAAAAAAAAAAAAAAAAAAAAAAAAAAAAAAAAAAAAAAAAAAAAAAAAAAAAAAAAAAAAAAAAAAAAAAAAAAAAAAAAAAAAAAAAAAAAAAAAAAAAAAAAAAAAAAAAAAAAAAAAAAAAAAAAAAAAAAAAAAAAAAAAAAAAAAAAAAAAAAAAAAAAAAAAAAAAAAAAAAAAAAAAAAAAAAAAAAAAAAAAAAAAAAAAAAAAAAAAAAAAAAAAAAAAAAAAAAAAAAAAAAAAAAAAAAAAAAAAAAAAAAAAAAAAAAAAAAAAAAAAAAAAAAAAAAAAAAAAAAAAAAAAAAAAAAAAAAAAAAAAAAAAAAAAAAAAAAAAAAAAAAAAAAAAAAAAAAAAAAAAAAAAAAAAAAAAAAAAAAAAAAAAAAAAAAAAAAAAAAAAAAAAAAAAAAAAAAAAAAAAAAAAAAAAAAAAAAAAAAAAAAAAAAAAAAAAAAAAAAAAAAAAAAAAAAAAAAAAAAAAAAAAAAAAAAAAAAAAAAAAAAAAAAAAAAAAAAAAAAAAAAAAAAAAAAAAAAAAAAAAAAAAAAAAAAAAAAAAAAAAAAAAAAAAAAAAAAAAAAAAAAAAAAAAAAAAAAAAAAAAAAAAAAAAAAAAAAAAAAAAAAAAAAAAAAAAAAAAAAAAAAAAAAAAAAAAAAAAAAAAAAAAAAAAAAAAAAAAAAAAAAAAAAAAAAAAAAAAAAAAAAAAAAAAAAAAAAAAAAAAAAAAAAAAAAAAAAAAAAAAAAAAAAAAAAAAAAAAAAAAAAAAAAAAAAAAAAAAAAAAAAAAAAAAAAAAAAAAAAAAAAAAAAAAAAAAAAAAAAAAAAAAAAAAAAAAAAAAAAAAAAAAAAAAAAAAAAAAAAAAAAAAAAAAAAAAAAAAAAAAAAAAAAAAAAAAAAAAAAAAAAAAAAAAAAAAAAAAAAAAAAAAAAAAAAAAAAAAAAAAAAAAAAAAAAAAAAAAAAAAAAAAAAAAAAAAAAAAAAAAAAAAAAAAAAAAAAAAAAAAAAAAAAAAAAAAAAAAAAAAAAAAAAAAAAAAAAAAAAAAAAAAAAAAAAAAAAAAAAAAAAAAAAAAAAAAAAAAAAAAAAAAAAAAAAAAAAAAAAAAAAAAAAAAAAAAAAAAAAAAAAAAAAAAAAAAAAAAAAAAAAAAAAAAAAAAAAAAAAAAAAAAAAAAAAAAAAAAAAAAAAAAAAAAAAAAAAAAAAAAAAAAAAAAAAAAAAAAAAAAAAAAAAAAAAAAAAAAAAAAAAAAAAAAAAAAAAAAAAAAAAAAAAAAAAAAAAAAAAAAAAAAAAAAAAAAAAAAAAAAAAAAAAAAAAAAAAAAAAAAAAAAAAAAAAAAAAAAAAAAAAAAAAAAAAAAAAAAAAAAAAAAAAAAAAAAAAAAAAAAAAAAAAAAAAAAAAAAAAAAAAAAAAAAAAAAAAAAAAAAAAAAAAAAAAAAAAAAAAAAAAAAAAAAAAAAAAAAAAAAAAAAAAAAAAAAAAAAAAAAAAAAAAAAAAAAAAAAAAAAAAAAAAAAAAAAAAAAAAAAAAAAAAAAAAAAAAAAAAAAAAAAAAAAAAAAAAAAAAAAAAAAAAAAAAAAAAAAAAAAAAAAAAAAAAAAAAAAAAAAAAAAAAAAAAAAAAAAAAAAAAAAAAAAAAAAAAAAAAAAAAAAAAAAAAAAAAAAAAAAAAAAAAAAAAAAAAAAAAAAAAAAAAAAAAAAAAAAAAAAAAAAAAAAAAAAAAAAAAAAAAAAAAAAAAAAAAAAAAAAAAAAAAAAAAAAAAAAAAAAAAAAAAAAAAAAAAAAAAAAAAAAAAAAAAAAAAAAAAAAAAAAAAAAAAAAAAAAAAAAAAAAAAAAAAAAAAAAAAAAAAAAAAAAAAAAAAAAAAAAAAAAAAAAAAAAAAAAAAAAAAAAAAAAAAAAAAAAAAAAAAAAAAAAAAAAAAAAAAAAAAAAAAAAAAAAAAAAAAAAAAAAAAAAAAAAAAAAAAAAAAAAAAAAAAAAAAAAAAAAAAAAAAAAAAAAAAAAAAAAAAAAAAAAAAAAAAAAAAAAAAAAAAAAAAAAAAAAAAAAAAAAAAAAAAAAAAAAAAAAAAAAAAAAAAAAAAAAAAAAAAAAAAAAAAAAAAAAAAAAAAAAAAAAAAAAAAAAAAAAAAAAAAAAAAAAAAAAAAAAAAAAAAAAAAAAAAAAAAAAAAAAAAAAAAAAAAAAAAAAAAAAAAAAAAAAAAAAAAAAAAAAAAAAAAAAAAAAAAAAAAAAAAAAAAAAAAAAAAAAAAAAAAAAAAAAAAAAAAAAAAAAAAAAAAAAAAAAAAAAAAAAAAAAAAAAAAAAAAAAAAAAAAAAAAAAAAAAAAAAAAAAAAAAAAAAAAAAAAAAAAAAAAAAAAAAAAAAAAAAAAAAAAAAAAAAAAAAAAAAAAAAAAAAAAAAAAAAAAAAAAAAAAAAAAAAAAAAAAAAAAAAAAAAAAAAAAAAAAAAAAAAAAAAAAAAAAAAAAAAAAAAAAAAAAAAAAAAAAAAAAAAAAAAAAAAAAAAAAAAAAAAAAAAAAAAAAAAAAAAAAAAAAAAAAAAAAAAAAAAAAAAAAAAAAAAAAAAAAAAAAAAAAAAAAAAAAAAAAAAAAAAAAAAAAAAAAAAAAAAAAAAAAAAAAAAAAAAAAAAAAAAAAAAAAAAAAAAAAAAAAAAAAAAAAAAAAAAAAAAAAAAAAAAAAAAAAAAAAAAAAAAAAAAAAAAAAAAAAAAAAAAAAAAAAAAAAAAAAAAAAAAAAAAAAAAAAAAAAAAAAAAAAAAAAAAAAAAAAAAAAAAAAAAAAAAAAAAAAAAAAAAAAAAAAAAAAAAAAAAAAAAAAAAAAAAAAAAAAAAAAAAAAAAAAAAAAAAAAAAAAAAAAAAAAAAAAAAAAAAAAAAAAAAAAAAAAAAAAAAAAAAAAAAAAAAAAAAAAAAAAAAAAAAAAAAAAAAAAAAAAAAAAAAAAAAAAAAAAAAAAAAAAAAAAAAAAAAAAAAAAAAAAAAAAAAAAAAAAAAAAAAAAAAAAAAAAAAAAAAAAAAAAAAAAAAAAAAAAAAAAAAAAAAAAAAAAAAAAAAAAAAAAAAAAAAAAAAAAAAAAAAAAAAAAAAAAAAAAAAAAAAAAAAAAAAAAAAAAAAAAAAAAAAAAAAAAAAAAAAAAAAAAAAAAAAAAAAAAAAAAAAAAAAAAAAAAAAAAAAAAAAAAAAAAAAAAAAAAAAAAAAAAAAAAAAAAAAAAAAAAAAAAAAAAAAAAAAAAAAAAAAAAAAAAAAAAAAAAAAAAAAAAAAAAAAAAAAAAAAAAAAAAAAAAAAAAAAAAAAAAAAAAAAAAAAAAAAAAAAAAAAAAAAAAAAAAAAAAAAAAAAAAAAAAAAAAAAAAAAAAAAAAAAAAAAAAAAAAAAAAAAAAAAAAAAAAAAAAAAAAAAAAAAAAAAAAAAAAAAAAAAAAAAAAAAAAAAAAAAAAAAAAAAAAAAAAAAAAAAAAAAAAAAAAAAAAAAAAAAAAAAAAAAAAAAAAAAAAAAAAAAAAAAAAAAAAAAAAAAAAAAAAAAAAAAAAAAAAAAAAAAAAAAAAAAAAAAAAAAAAAAAAAAAAAAAAAAAAAAAAAAAAAAAAAAAAAAAAAAAAAAAAAAAAAAAAAAAAAAAAAAAAAAAAAPZYQLsFXJqdPgwBHEwjtNtOX0mcxcjYWfhkM0gKW4V6KRzZZ3MpdMmIQEya45bd3+zRFLtbkhunD5IaZ/2tdtCTOFI=</c2pa:manifest></metadata><title>Castor pensando</title><rect x="29" y="0" width="3" height="1" fill="#4f2424"></rect><rect x="29" y="1" width="3" height="1" fill="#4f2424"></rect><rect x="8" y="2" width="4" height="1" fill="#4f2424"></rect><rect x="20" y="2" width="4" height="1" fill="#4f2424"></rect><rect x="27" y="2" width="2" height="1" fill="#4f2424"></rect><rect x="7" y="3" width="1" height="1" fill="#4f2424"></rect><rect x="8" y="3" width="4" height="1" fill="#d4552e"></rect><rect x="12" y="3" width="8" height="1" fill="#4f2424"></rect><rect x="20" y="3" width="4" height="1" fill="#d4552e"></rect><rect x="24" y="3" width="1" height="1" fill="#4f2424"></rect><rect x="27" y="3" width="2" height="1" fill="#4f2424"></rect><rect x="7" y="4" width="1" height="1" fill="#4f2424"></rect><rect x="8" y="4" width="3" height="1" fill="#d4552e"></rect><rect x="11" y="4" width="2" height="1" fill="#4f2424"></rect><rect x="13" y="4" width="6" height="1" fill="#d4552e"></rect><rect x="19" y="4" width="2" height="1" fill="#4f2424"></rect><rect x="21" y="4" width="3" height="1" fill="#d4552e"></rect><rect x="24" y="4" width="1" height="1" fill="#4f2424"></rect><rect x="7" y="5" width="1" height="1" fill="#4f2424"></rect><rect x="8" y="5" width="2" height="1" fill="#d4552e"></rect><rect x="10" y="5" width="1" height="1" fill="#4f2424"></rect><rect x="11" y="5" width="10" height="1" fill="#d4552e"></rect><rect x="21" y="5" width="1" height="1" fill="#4f2424"></rect><rect x="22" y="5" width="2" height="1" fill="#d4552e"></rect><rect x="24" y="5" width="2" height="1" fill="#4f2424"></rect><rect x="7" y="6" width="1" height="1" fill="#4f2424"></rect><rect x="8" y="6" width="1" height="1" fill="#d4552e"></rect><rect x="9" y="6" width="1" height="1" fill="#4f2424"></rect><rect x="10" y="6" width="12" height="1" fill="#d4552e"></rect><rect x="22" y="6" width="1" height="1" fill="#4f2424"></rect><rect x="23" y="6" width="1" height="1" fill="#d4552e"></rect><rect x="24" y="6" width="1" height="1" fill="#4f2424"></rect><rect x="8" y="7" width="1" height="1" fill="#4f2424"></rect><rect x="9" y="7" width="14" height="1" fill="#d4552e"></rect><rect x="23" y="7" width="1" height="1" fill="#4f2424"></rect><rect x="8" y="8" width="1" height="1" fill="#4f2424"></rect><rect x="9" y="8" width="4" height="1" fill="#d4552e"></rect><rect x="13" y="8" width="1" height="1" fill="#4f2424"></rect><rect x="14" y="8" width="1" height="1" fill="#fffaf0"></rect><rect x="15" y="8" width="5" height="1" fill="#d4552e"></rect><rect x="20" y="8" width="1" height="1" fill="#4f2424"></rect><rect x="21" y="8" width="1" height="1" fill="#fffaf0"></rect><rect x="22" y="8" width="1" height="1" fill="#d4552e"></rect><rect x="23" y="8" width="1" height="1" fill="#4f2424"></rect><rect x="7" y="9" width="1" height="1" fill="#4f2424"></rect><rect x="8" y="9" width="5" height="1" fill="#d4552e"></rect><rect x="13" y="9" width="2" height="1" fill="#4f2424"></rect><rect x="15" y="9" width="5" height="1" fill="#d4552e"></rect><rect x="20" y="9" width="2" height="1" fill="#4f2424"></rect><rect x="22" y="9" width="2" height="1" fill="#d4552e"></rect><rect x="24" y="9" width="1" height="1" fill="#4f2424"></rect><rect x="7" y="10" width="1" height="1" fill="#4f2424"></rect><rect x="8" y="10" width="16" height="1" fill="#d4552e"></rect><rect x="24" y="10" width="1" height="1" fill="#4f2424"></rect><rect x="7" y="11" width="1" height="1" fill="#4f2424"></rect><rect x="8" y="11" width="16" height="1" fill="#d4552e"></rect><rect x="24" y="11" width="1" height="1" fill="#4f2424"></rect><rect x="7" y="12" width="1" height="1" fill="#4f2424"></rect><rect x="8" y="12" width="5" height="1" fill="#d4552e"></rect><rect x="13" y="12" width="2" height="1" fill="#f2b56b"></rect><rect x="15" y="12" width="2" height="1" fill="#4f2424"></rect><rect x="17" y="12" width="2" height="1" fill="#f2b56b"></rect><rect x="19" y="12" width="2" height="1" fill="#d4552e"></rect><rect x="21" y="12" width="3" height="1" fill="#b03f22"></rect><rect x="24" y="12" width="1" height="1" fill="#4f2424"></rect><rect x="8" y="13" width="1" height="1" fill="#4f2424"></rect><rect x="9" y="13" width="3" height="1" fill="#d4552e"></rect><rect x="12" y="13" width="8" height="1" fill="#f2b56b"></rect><rect x="20" y="13" width="1" height="1" fill="#d4552e"></rect><rect x="21" y="13" width="2" height="1" fill="#b03f22"></rect><rect x="23" y="13" width="1" height="1" fill="#4f2424"></rect><rect x="8" y="14" width="1" height="1" fill="#4f2424"></rect><rect x="9" y="14" width="3" height="1" fill="#d4552e"></rect><rect x="12" y="14" width="2" height="1" fill="#f2b56b"></rect><rect x="14" y="14" width="4" height="1" fill="#4f2424"></rect><rect x="18" y="14" width="2" height="1" fill="#f2b56b"></rect><rect x="20" y="14" width="1" height="1" fill="#d4552e"></rect><rect x="21" y="14" width="2" height="1" fill="#b03f22"></rect><rect x="23" y="14" width="1" height="1" fill="#4f2424"></rect><rect x="9" y="15" width="1" height="1" fill="#4f2424"></rect><rect x="10" y="15" width="2" height="1" fill="#d4552e"></rect><rect x="12" y="15" width="3" height="1" fill="#f2b56b"></rect><rect x="15" y="15" width="2" height="1" fill="#fffaf0"></rect><rect x="17" y="15" width="3" height="1" fill="#f2b56b"></rect><rect x="20" y="15" width="3" height="1" fill="#4f2424"></rect><rect x="10" y="16" width="1" height="1" fill="#4f2424"></rect><rect x="11" y="16" width="3" height="1" fill="#d4552e"></rect><rect x="14" y="16" width="1" height="1" fill="#f2b56b"></rect><rect x="15" y="16" width="2" height="1" fill="#fffaf0"></rect><rect x="17" y="16" width="1" height="1" fill="#f2b56b"></rect><rect x="18" y="16" width="1" height="1" fill="#d4552e"></rect><rect x="19" y="16" width="1" height="1" fill="#4f2424"></rect><rect x="20" y="16" width="2" height="1" fill="#d4552e"></rect><rect x="22" y="16" width="1" height="1" fill="#4f2424"></rect><rect x="10" y="17" width="3" height="1" fill="#4f2424"></rect><rect x="13" y="17" width="5" height="1" fill="#d4552e"></rect><rect x="18" y="17" width="1" height="1" fill="#4f2424"></rect><rect x="19" y="17" width="4" height="1" fill="#d4552e"></rect><rect x="23" y="17" width="1" height="1" fill="#4f2424"></rect><rect x="9" y="18" width="1" height="1" fill="#4f2424"></rect><rect x="10" y="18" width="3" height="1" fill="#d4552e"></rect><rect x="13" y="18" width="7" height="1" fill="#4f2424"></rect><rect x="20" y="18" width="2" height="1" fill="#d4552e"></rect><rect x="22" y="18" width="1" height="1" fill="#4f2424"></rect><rect x="23" y="18" width="1" height="1" fill="#d4552e"></rect><rect x="24" y="18" width="1" height="1" fill="#4f2424"></rect><rect x="9" y="19" width="1" height="1" fill="#4f2424"></rect><rect x="10" y="19" width="4" height="1" fill="#d4552e"></rect><rect x="14" y="19" width="5" height="1" fill="#f2b56b"></rect><rect x="19" y="19" width="3" height="1" fill="#4f2424"></rect><rect x="22" y="19" width="1" height="1" fill="#d4552e"></rect><rect x="23" y="19" width="2" height="1" fill="#4f2424"></rect><rect x="8" y="20" width="1" height="1" fill="#4f2424"></rect><rect x="9" y="20" width="3" height="1" fill="#d4552e"></rect><rect x="12" y="20" width="2" height="1" fill="#4f2424"></rect><rect x="14" y="20" width="6" height="1" fill="#f2b56b"></rect><rect x="20" y="20" width="1" height="1" fill="#4f2424"></rect><rect x="21" y="20" width="2" height="1" fill="#d4552e"></rect><rect x="23" y="20" width="1" height="1" fill="#4f2424"></rect><rect x="24" y="20" width="1" height="1" fill="#b03f22"></rect><rect x="25" y="20" width="1" height="1" fill="#4f2424"></rect><rect x="8" y="21" width="1" height="1" fill="#4f2424"></rect><rect x="9" y="21" width="2" height="1" fill="#d4552e"></rect><rect x="11" y="21" width="1" height="1" fill="#4f2424"></rect><rect x="12" y="21" width="2" height="1" fill="#d4552e"></rect><rect x="14" y="21" width="1" height="1" fill="#4f2424"></rect><rect x="15" y="21" width="5" height="1" fill="#f2b56b"></rect><rect x="20" y="21" width="1" height="1" fill="#4f2424"></rect><rect x="21" y="21" width="2" height="1" fill="#d4552e"></rect><rect x="23" y="21" width="1" height="1" fill="#4f2424"></rect><rect x="24" y="21" width="1" height="1" fill="#b03f22"></rect><rect x="25" y="21" width="1" height="1" fill="#4f2424"></rect><rect x="3" y="22" width="6" height="1" fill="#4f2424"></rect><rect x="9" y="22" width="1" height="1" fill="#d4552e"></rect><rect x="10" y="22" width="1" height="1" fill="#4f2424"></rect><rect x="11" y="22" width="4" height="1" fill="#d4552e"></rect><rect x="15" y="22" width="1" height="1" fill="#4f2424"></rect><rect x="16" y="22" width="5" height="1" fill="#f2b56b"></rect><rect x="21" y="22" width="2" height="1" fill="#4f2424"></rect><rect x="23" y="22" width="2" height="1" fill="#b03f22"></rect><rect x="25" y="22" width="1" height="1" fill="#4f2424"></rect><rect x="1" y="23" width="2" height="1" fill="#4f2424"></rect><rect x="3" y="23" width="1" height="1" fill="#5a2f28"></rect><rect x="4" y="23" width="2" height="1" fill="#85483b"></rect><rect x="6" y="23" width="1" height="1" fill="#5a2f28"></rect><rect x="7" y="23" width="1" height="1" fill="#85483b"></rect><rect x="8" y="23" width="1" height="1" fill="#4f2424"></rect><rect x="9" y="23" width="2" height="1" fill="#d4552e"></rect><rect x="11" y="23" width="1" height="1" fill="#4f2424"></rect><rect x="12" y="23" width="2" height="1" fill="#d4552e"></rect><rect x="14" y="23" width="1" height="1" fill="#4f2424"></rect><rect x="15" y="23" width="7" height="1" fill="#f2b56b"></rect><rect x="22" y="23" width="3" height="1" fill="#b03f22"></rect><rect x="25" y="23" width="1" height="1" fill="#4f2424"></rect><rect x="0" y="24" width="1" height="1" fill="#4f2424"></rect><rect x="1" y="24" width="2" height="1" fill="#5a2f28"></rect><rect x="3" y="24" width="1" height="1" fill="#85483b"></rect><rect x="4" y="24" width="2" height="1" fill="#5a2f28"></rect><rect x="6" y="24" width="1" height="1" fill="#85483b"></rect><rect x="7" y="24" width="1" height="1" fill="#5a2f28"></rect><rect x="8" y="24" width="1" height="1" fill="#4f2424"></rect><rect x="9" y="24" width="3" height="1" fill="#d4552e"></rect><rect x="12" y="24" width="2" height="1" fill="#4f2424"></rect><rect x="14" y="24" width="8" height="1" fill="#f2b56b"></rect><rect x="22" y="24" width="3" height="1" fill="#b03f22"></rect><rect x="25" y="24" width="1" height="1" fill="#4f2424"></rect><rect x="0" y="25" width="1" height="1" fill="#5a2f28"></rect><rect x="1" y="25" width="2" height="1" fill="#85483b"></rect><rect x="3" y="25" width="1" height="1" fill="#5a2f28"></rect><rect x="4" y="25" width="2" height="1" fill="#85483b"></rect><rect x="6" y="25" width="1" height="1" fill="#5a2f28"></rect><rect x="7" y="25" width="1" height="1" fill="#85483b"></rect><rect x="8" y="25" width="1" height="1" fill="#4f2424"></rect><rect x="9" y="25" width="3" height="1" fill="#d4552e"></rect><rect x="12" y="25" width="10" height="1" fill="#f2b56b"></rect><rect x="22" y="25" width="3" height="1" fill="#b03f22"></rect><rect x="25" y="25" width="1" height="1" fill="#4f2424"></rect><rect x="0" y="26" width="1" height="1" fill="#5a2f28"></rect><rect x="1" y="26" width="2" height="1" fill="#85483b"></rect><rect x="3" y="26" width="1" height="1" fill="#5a2f28"></rect><rect x="4" y="26" width="2" height="1" fill="#85483b"></rect><rect x="6" y="26" width="1" height="1" fill="#5a2f28"></rect><rect x="7" y="26" width="2" height="1" fill="#85483b"></rect><rect x="9" y="26" width="1" height="1" fill="#4f2424"></rect><rect x="10" y="26" width="2" height="1" fill="#d4552e"></rect><rect x="12" y="26" width="10" height="1" fill="#f2b56b"></rect><rect x="22" y="26" width="2" height="1" fill="#b03f22"></rect><rect x="24" y="26" width="1" height="1" fill="#4f2424"></rect><rect x="0" y="27" width="1" height="1" fill="#85483b"></rect><rect x="1" y="27" width="2" height="1" fill="#5a2f28"></rect><rect x="3" y="27" width="1" height="1" fill="#85483b"></rect><rect x="4" y="27" width="2" height="1" fill="#5a2f28"></rect><rect x="6" y="27" width="1" height="1" fill="#85483b"></rect><rect x="7" y="27" width="2" height="1" fill="#5a2f28"></rect><rect x="9" y="27" width="1" height="1" fill="#4f2424"></rect><rect x="10" y="27" width="3" height="1" fill="#d4552e"></rect><rect x="13" y="27" width="8" height="1" fill="#f2b56b"></rect><rect x="21" y="27" width="1" height="1" fill="#d4552e"></rect><rect x="22" y="27" width="2" height="1" fill="#b03f22"></rect><rect x="24" y="27" width="1" height="1" fill="#4f2424"></rect><rect x="0" y="28" width="1" height="1" fill="#4f2424"></rect><rect x="1" y="28" width="2" height="1" fill="#85483b"></rect><rect x="3" y="28" width="1" height="1" fill="#5a2f28"></rect><rect x="4" y="28" width="2" height="1" fill="#85483b"></rect><rect x="6" y="28" width="1" height="1" fill="#5a2f28"></rect><rect x="7" y="28" width="2" height="1" fill="#85483b"></rect><rect x="9" y="28" width="1" height="1" fill="#4f2424"></rect><rect x="10" y="28" width="4" height="1" fill="#b03f22"></rect><rect x="14" y="28" width="6" height="1" fill="#f2b56b"></rect><rect x="20" y="28" width="4" height="1" fill="#b03f22"></rect><rect x="24" y="28" width="1" height="1" fill="#4f2424"></rect><rect x="1" y="29" width="2" height="1" fill="#4f2424"></rect><rect x="3" y="29" width="1" height="1" fill="#5a2f28"></rect><rect x="4" y="29" width="2" height="1" fill="#85483b"></rect><rect x="6" y="29" width="1" height="1" fill="#5a2f28"></rect><rect x="7" y="29" width="1" height="1" fill="#85483b"></rect><rect x="8" y="29" width="1" height="1" fill="#4f2424"></rect><rect x="9" y="29" width="6" height="1" fill="#b03f22"></rect><rect x="15" y="29" width="4" height="1" fill="#f2b56b"></rect><rect x="19" y="29" width="6" height="1" fill="#b03f22"></rect><rect x="25" y="29" width="1" height="1" fill="#4f2424"></rect><rect x="3" y="30" width="7" height="1" fill="#4f2424"></rect><rect x="10" y="30" width="4" height="1" fill="#b03f22"></rect><rect x="14" y="30" width="6" height="1" fill="#d4552e"></rect><rect x="20" y="30" width="4" height="1" fill="#b03f22"></rect><rect x="24" y="30" width="1" height="1" fill="#4f2424"></rect><rect x="10" y="31" width="14" height="1" fill="#4f2424"></rect></svg>